<svg width="16.000000" height="16.000000" viewBox="0 0 16 16" fill="none" xmlns="http://www.w3.org/2000/svg" xmlns:xlink="http://www.w3.org/1999/xlink">
	<desc>
			Created with Pixso.
	</desc>
	<defs>
		<clipPath id="clip12_843">
			<rect width="15.999999" height="16.000000" transform="matrix(-1 -8.74228e-08 -8.74228e-08 1 16 0)" fill="white" fill-opacity="0"/>
		</clipPath>
	</defs>
	<rect width="15.999999" height="16.000000" transform="matrix(-1 -8.74228e-08 -8.74228e-08 1 16 0)" fill="#FFFFFF" fill-opacity="0"/>
	<g clip-path="url(#clip12_843)">
		<path d="M0.96 6.87C1.02 6.86 1.09 6.86 1.15 6.86L12.44 6.86L12.2 6.74C11.96 6.63 11.74 6.47 11.55 6.28L8.38 3.12C7.97 2.72 7.9 2.08 8.22 1.6C8.59 1.09 9.31 0.98 9.82 1.36C9.86 1.39 9.9 1.42 9.94 1.45L15.66 7.18C16.11 7.62 16.11 8.35 15.66 8.8C15.66 8.8 15.66 8.8 15.66 8.8L9.94 14.52C9.49 14.97 8.76 14.97 8.32 14.52C8.28 14.48 8.25 14.45 8.22 14.41C7.9 13.93 7.97 13.29 8.38 12.89L11.54 9.72C11.71 9.55 11.9 9.41 12.12 9.3L12.46 9.15L1.22 9.15C0.63 9.17 0.12 8.76 0.01 8.19C-0.09 7.56 0.33 6.97 0.96 6.87Z" fill="#2194FF" fill-opacity="1.000000" fill-rule="nonzero"/>
	</g>
</svg>
