<svg width="22.000000" height="19.000000" viewBox="0 0 22 19" fill="none" xmlns="http://www.w3.org/2000/svg" xmlns:xlink="http://www.w3.org/1999/xlink">
	<desc>
			Created with Pixso.
	</desc>
	<defs/>
	<path d="M7.93 2.14C8.29 2.14 8.58 1.85 8.58 1.49L8.58 0.2C8.58 -0.16 8.29 -0.45 7.93 -0.45C7.58 -0.45 7.29 -0.16 7.29 0.2L7.29 1.49C7.29 1.85 7.58 2.14 7.93 2.14Z" fill="#F1F1F1" fill-opacity="1.000000" fill-rule="nonzero"/>
	<path d="M2.09 4.5L0.96 3.85C0.65 3.67 0.26 3.78 0.08 4.09C-0.1 4.39 0.01 4.79 0.32 4.97L1.44 5.62C1.75 5.79 2.14 5.69 2.32 5.38C2.5 5.07 2.39 4.68 2.09 4.5Z" fill="#F1F1F1" fill-opacity="1.000000" fill-rule="nonzero"/>
	<path d="M1.44 11.63L0.32 12.28C-0.25 12.6 -0.02 13.48 0.64 13.48C0.93 13.48 1.01 13.34 2.09 12.74C2.39 12.56 2.5 12.17 2.32 11.86C2.14 11.55 1.75 11.45 1.44 11.63Z" fill="#F1F1F1" fill-opacity="1.000000" fill-rule="nonzero"/>
	<path d="M14.42 5.62L15.55 4.97C15.86 4.79 15.96 4.39 15.78 4.09C15.61 3.78 15.21 3.67 14.9 3.85L13.78 4.5C13.47 4.68 13.37 5.07 13.54 5.38C13.72 5.69 14.12 5.79 14.42 5.62Z" fill="#F1F1F1" fill-opacity="1.000000" fill-rule="nonzero"/>
	<path d="M6.63 10.25C7.11 7.63 9.22 5.62 11.86 5.28C10.91 4.17 9.5 3.46 7.93 3.46C5.09 3.46 2.78 5.78 2.78 8.62C2.78 9.98 3.3 11.22 4.17 12.14C4.76 11.26 5.63 10.6 6.63 10.25Z" fill="#F1F1F1" fill-opacity="1.000000" fill-rule="nonzero"/>
	<path d="M17.14 9.54C16.41 7.73 14.64 6.52 12.65 6.52C9.99 6.52 7.85 8.66 7.82 11.3C5.99 11.5 4.6 13.07 4.6 14.92C4.6 16.92 6.23 18.55 8.23 18.55C18.37 18.54 17.82 18.58 17.99 18.52C20.25 18.27 22 16.36 22 14.04C22 11.39 19.73 9.33 17.14 9.54Z" fill="#F1F1F1" fill-opacity="1.000000" fill-rule="nonzero"/>
</svg>
