<svg width="107.000000" height="114.000000" viewBox="0 0 107 114" fill="none" xmlns="http://www.w3.org/2000/svg" xmlns:xlink="http://www.w3.org/1999/xlink">
	<desc>
			Created with Pixso.
	</desc>
	<defs>
		<clipPath id="clip30_2">
			<rect width="71.000000" height="90.000000" transform="translate(0.000000 34.825897) rotate(-29.373814)" fill="white" fill-opacity="0"/>
		</clipPath>
	</defs>
	<rect width="71.000000" height="90.000000" transform="translate(0.000000 34.825897) rotate(-29.373814)" fill="#FFFFFF" fill-opacity="0"/>
	<g clip-path="url(#clip30_2)">
		<path d="M82.16 87.29L80.39 86C81.39 84.68 82.37 83.33 83.28 81.9L85.08 83.12C84.24 84.53 83.16 85.93 82.16 87.29ZM87.88 78.89L85.98 77.78C86.87 76.26 87.64 74.84 88.29 73.43L90.26 74.33C89.54 75.89 88.75 77.41 87.88 78.89ZM92.09 69.51L90 68.88C90.16 68.36 90.3 67.82 90.43 67.3C90.67 66.27 90.85 65.22 90.95 64.17L93.13 64.36C93.01 65.51 92.82 66.65 92.56 67.78C92.51 68.3 92.27 68.94 92.09 69.51ZM93.07 59.04L90.89 59.28C90.72 57.69 90.38 56.13 89.86 54.63L91.94 53.9C92.52 55.6 92.92 57.35 93.12 59.14L93.07 59.04ZM87.77 50.43C86.89 49.14 85.8 48.01 84.54 47.09L85.84 45.32C87.28 46.39 88.53 47.69 89.55 49.18L87.77 50.43ZM80.41 44.95C78.9 44.46 77.34 44.17 75.76 44.07L75.91 41.91C77.68 41.99 79.43 42.32 81.11 42.87L80.41 44.95ZM70.92 44.22C69.48 44.39 67.88 44.64 66.07 45.02L65.58 42.81C67.26 42.44 68.95 42.17 70.66 41.99L70.92 44.22ZM61.19 46.15L59.71 46.52L56.3 47.35L55.77 45.17L59.15 44.33L60.65 43.95L61.19 46.15ZM51.31 48.37C49.62 48.65 47.92 48.84 46.21 48.99L46.05 46.82C47.69 46.67 49.34 46.48 50.96 46.21L51.31 48.37ZM41.09 49.17C39.38 49.18 37.67 49.11 36.01 48.98L36.18 46.8C37.81 46.92 39.46 46.98 41.1 46.98L41.09 49.17ZM30.9 48.43C29.23 48.16 27.54 47.84 25.88 47.46L26.38 45.35C27.98 45.71 29.61 46.01 31.22 46.27L30.9 48.43ZM20.96 46.14C19.33 45.63 17.71 45.05 16.15 44.44L16.94 42.41C18.48 43.01 20.07 43.55 21.6 44.05L20.96 46.14ZM11.4 42.41C9.88 41.65 8.38 40.83 6.92 39.97L8.03 38.1C9.44 38.92 10.9 39.71 12.38 40.44L11.4 42.41ZM2.63 37.2C1.84 36.63 1.04 36.06 0.28 35.46L1.62 33.73C2.38 34.32 3.13 34.87 3.89 35.43L2.63 37.2Z" fill="#F1F1F1" fill-opacity="1.000000" fill-rule="nonzero"/>
		<path d="M92.72 85.91L92.28 83.75L81.73 85.95L80.35 75.27L78.17 75.56L79.86 88.54L92.72 85.91Z" fill="#F1F1F1" fill-opacity="1.000000" fill-rule="nonzero"/>
	</g>
</svg>
