<svg width="19.000000" height="21.000000" viewBox="0 0 19 21" fill="none" xmlns="http://www.w3.org/2000/svg" xmlns:xlink="http://www.w3.org/1999/xlink">
	<desc>
			Created with Pixso.
	</desc>
	<defs/>
	<path id="Vector" d="M17.9 14.29L16.43 13.44L17.61 13.01C17.79 12.95 17.94 12.83 18.03 12.66C18.12 12.5 18.15 12.31 18.11 12.13C18.08 12.03 18.04 11.93 17.97 11.85C17.91 11.77 17.83 11.71 17.74 11.66C17.65 11.61 17.55 11.58 17.45 11.57C17.34 11.57 17.24 11.58 17.15 11.62L14.78 12.49L12.92 11.42L13.54 10.37C13.61 10.26 13.64 10.13 13.64 10C13.64 9.86 13.61 9.74 13.54 9.62L12.92 8.57L14.78 7.5L17.15 8.37C17.25 8.41 17.35 8.42 17.46 8.41C17.57 8.41 17.67 8.37 17.77 8.32C17.86 8.26 17.94 8.19 18 8.1C18.06 8.01 18.1 7.91 18.12 7.81C18.15 7.63 18.11 7.46 18.02 7.3C17.93 7.15 17.79 7.04 17.62 6.98L16.43 6.55L17.9 5.7C18.06 5.61 18.19 5.46 18.25 5.29C18.31 5.11 18.31 4.92 18.24 4.75C18.2 4.65 18.14 4.57 18.06 4.5C17.98 4.43 17.89 4.38 17.79 4.35C17.7 4.32 17.59 4.31 17.49 4.32C17.39 4.33 17.29 4.36 17.2 4.41L15.7 5.28L15.91 4.04C15.95 3.87 15.92 3.68 15.83 3.53C15.75 3.37 15.61 3.25 15.44 3.18C15.34 3.15 15.23 3.13 15.13 3.14C15.02 3.15 14.92 3.19 14.83 3.24C14.73 3.3 14.65 3.37 14.59 3.46C14.53 3.54 14.49 3.64 14.47 3.75L14.04 6.23L12.17 7.31L11.59 6.32C11.53 6.21 11.43 6.12 11.32 6.06C11.21 6 11.09 5.96 10.96 5.96L9.73 5.96L9.73 3.74L11.64 2.15C11.77 2.04 11.87 1.88 11.91 1.71C11.94 1.53 11.91 1.35 11.83 1.19C11.78 1.1 11.7 1.02 11.62 0.96C11.53 0.9 11.43 0.86 11.32 0.84C11.22 0.82 11.11 0.83 11.01 0.85C10.9 0.88 10.81 0.93 10.73 1L9.73 1.83L9.73 0.13C9.73 -0.04 9.67 -0.22 9.56 -0.36C9.45 -0.5 9.29 -0.59 9.12 -0.63C9.01 -0.65 8.91 -0.64 8.8 -0.61C8.7 -0.58 8.6 -0.53 8.52 -0.47C8.44 -0.4 8.37 -0.31 8.33 -0.21C8.28 -0.12 8.26 -0.01 8.26 0.1L8.26 1.83L7.29 1.02C7.16 0.91 6.99 0.84 6.81 0.84C6.63 0.83 6.46 0.89 6.32 1C6.24 1.07 6.17 1.16 6.13 1.26C6.08 1.35 6.06 1.46 6.06 1.57C6.06 1.67 6.09 1.78 6.13 1.88C6.18 1.97 6.24 2.06 6.33 2.13L8.26 3.74L8.26 5.96L7.03 5.96C6.9 5.96 6.78 5.99 6.67 6.06C6.56 6.12 6.46 6.21 6.4 6.32L5.81 7.31L3.94 6.23L3.52 3.79C3.49 3.61 3.4 3.44 3.26 3.32C3.11 3.2 2.93 3.14 2.74 3.14C2.64 3.15 2.54 3.18 2.45 3.23C2.36 3.27 2.28 3.34 2.22 3.42C2.15 3.5 2.11 3.59 2.08 3.69C2.06 3.79 2.05 3.9 2.07 4L2.29 5.28L0.82 4.43C0.67 4.34 0.49 4.3 0.31 4.33C0.14 4.35 -0.02 4.44 -0.14 4.58C-0.21 4.66 -0.26 4.75 -0.29 4.86C-0.31 4.96 -0.32 5.07 -0.3 5.17C-0.28 5.28 -0.24 5.38 -0.18 5.47C-0.12 5.55 -0.04 5.63 0.06 5.68L1.56 6.55L0.37 6.98C0.21 7.04 0.06 7.15 -0.03 7.3C-0.12 7.45 -0.16 7.63 -0.13 7.81C-0.11 7.91 -0.07 8.01 -0.01 8.1C0.05 8.19 0.13 8.26 0.22 8.32C0.32 8.37 0.42 8.41 0.53 8.41C0.64 8.42 0.74 8.41 0.84 8.37L3.21 7.5L5.07 8.57L4.45 9.62C4.38 9.74 4.35 9.86 4.35 10C4.35 10.13 4.38 10.26 4.45 10.37L5.07 11.42L3.21 12.49L0.84 11.62C0.75 11.58 0.65 11.57 0.54 11.57C0.44 11.58 0.34 11.61 0.25 11.66C0.16 11.71 0.08 11.77 0.02 11.85C-0.05 11.93 -0.09 12.03 -0.12 12.13C-0.16 12.31 -0.13 12.5 -0.04 12.66C0.05 12.82 0.2 12.95 0.38 13.01L1.56 13.44L0.09 14.29C-0.07 14.38 -0.2 14.53 -0.26 14.7C-0.32 14.88 -0.32 15.08 -0.24 15.25C-0.2 15.34 -0.14 15.43 -0.06 15.49C0.01 15.56 0.1 15.61 0.2 15.64C0.3 15.67 0.4 15.68 0.5 15.67C0.6 15.66 0.7 15.63 0.79 15.58L2.29 14.71L2.08 15.95C2.05 16.06 2.06 16.17 2.08 16.28C2.11 16.38 2.16 16.48 2.22 16.57C2.29 16.65 2.38 16.72 2.48 16.77C2.58 16.82 2.68 16.85 2.79 16.85C2.97 16.85 3.13 16.79 3.26 16.68C3.4 16.57 3.48 16.41 3.51 16.24L3.94 13.76L5.81 12.68L6.4 13.67C6.46 13.78 6.56 13.87 6.67 13.93C6.78 14 6.9 14.03 7.03 14.03L8.26 14.03L8.26 16.25L6.36 17.84C6.22 17.95 6.12 18.11 6.08 18.28C6.05 18.46 6.08 18.64 6.16 18.8C6.21 18.89 6.29 18.97 6.38 19.03C6.46 19.09 6.56 19.13 6.67 19.15C6.77 19.17 6.88 19.17 6.98 19.14C7.09 19.11 7.18 19.06 7.26 18.99L8.26 18.16L8.26 19.86C8.26 20.03 8.32 20.21 8.43 20.35C8.54 20.49 8.7 20.58 8.87 20.62C8.98 20.64 9.08 20.63 9.19 20.6C9.29 20.57 9.39 20.52 9.47 20.46C9.55 20.39 9.62 20.3 9.66 20.2C9.71 20.11 9.73 20 9.73 19.9L9.73 18.16L10.73 18.99C10.81 19.06 10.91 19.11 11.01 19.14C11.12 19.17 11.23 19.17 11.34 19.15C11.44 19.13 11.54 19.08 11.63 19.02C11.72 18.95 11.79 18.87 11.84 18.77C11.92 18.62 11.94 18.44 11.91 18.27C11.87 18.1 11.77 17.95 11.64 17.84L9.73 16.25L9.73 14.03L10.96 14.03C11.09 14.03 11.21 14 11.32 13.93C11.43 13.87 11.53 13.78 11.59 13.67L12.18 12.68L14.05 13.76L14.48 16.24C14.5 16.41 14.59 16.57 14.73 16.68C14.86 16.79 15.02 16.85 15.2 16.85C15.31 16.85 15.41 16.82 15.51 16.77C15.61 16.72 15.7 16.65 15.77 16.56C15.83 16.48 15.88 16.38 15.91 16.27C15.93 16.16 15.93 16.05 15.91 15.95L15.7 14.71L17.2 15.58C17.29 15.63 17.39 15.66 17.49 15.67C17.59 15.68 17.69 15.67 17.79 15.64C17.89 15.61 17.98 15.56 18.05 15.5C18.13 15.43 18.19 15.35 18.23 15.26C18.31 15.08 18.31 14.89 18.25 14.71C18.19 14.53 18.06 14.38 17.9 14.29ZM11.28 10.56L10.62 11.66C10.53 11.82 10.39 11.96 10.22 12.05C10.06 12.15 9.87 12.19 9.68 12.2L8.31 12.2C8.12 12.19 7.93 12.15 7.77 12.05C7.6 11.96 7.47 11.82 7.37 11.66L6.71 10.56C6.6 10.39 6.55 10.19 6.55 10C6.55 9.8 6.6 9.6 6.71 9.43L7.37 8.33C7.47 8.17 7.6 8.03 7.77 7.94C7.93 7.84 8.12 7.8 8.31 7.8L9.68 7.8C9.87 7.8 10.06 7.84 10.22 7.94C10.39 8.03 10.53 8.17 10.62 8.33L11.28 9.43C11.39 9.6 11.44 9.8 11.44 10C11.44 10.19 11.39 10.39 11.28 10.56Z" fill="#2194FF" fill-opacity="1.000000" fill-rule="nonzero"/>
</svg>
