<svg width="25.000000" height="25.000000" viewBox="0 0 25 25" fill="none" xmlns="http://www.w3.org/2000/svg" xmlns:xlink="http://www.w3.org/1999/xlink">
	<desc>
			Created with Pixso.
	</desc>
	<defs>
		<clipPath id="clip6_190">
			<rect width="25.000000" height="25.000000" fill="white" fill-opacity="0"/>
		</clipPath>
	</defs>
	<rect width="25.000000" height="25.000000" fill="#FFFFFF" fill-opacity="0"/>
	<g clip-path="url(#clip6_190)">
		<path d="M12.5 6.23C9.04 6.23 6.23 9.04 6.23 12.5C6.23 15.95 9.04 18.76 12.5 18.76C15.95 18.76 18.76 15.95 18.76 12.5C18.76 9.04 15.95 6.23 12.5 6.23Z" fill="#2194FF" fill-opacity="1.000000" fill-rule="nonzero"/>
		<path d="M12.5 4.39C11.82 4.39 11.27 3.85 11.27 3.17L11.27 1.22C11.27 0.54 11.82 0 12.5 0C13.17 0 13.72 0.54 13.72 1.22L13.72 3.17C13.72 3.85 13.17 4.39 12.5 4.39Z" fill="#2194FF" fill-opacity="1.000000" fill-rule="nonzero"/>
		<path d="M12.5 20.6C11.82 20.6 11.27 21.14 11.27 21.82L11.27 23.77C11.27 24.45 11.82 25 12.5 25C13.17 25 13.72 24.45 13.72 23.77L13.72 21.82C13.72 21.14 13.17 20.6 12.5 20.6Z" fill="#2194FF" fill-opacity="1.000000" fill-rule="nonzero"/>
		<path d="M18.22 6.77C17.75 6.29 17.75 5.52 18.22 5.04L19.61 3.66C20.08 3.18 20.86 3.18 21.33 3.66C21.81 4.13 21.81 4.91 21.33 5.38L19.95 6.77C19.47 7.24 18.7 7.24 18.22 6.77Z" fill="#2194FF" fill-opacity="1.000000" fill-rule="nonzero"/>
		<path d="M6.77 18.22C6.29 17.75 5.52 17.75 5.04 18.22L3.66 19.61C3.18 20.08 3.18 20.86 3.66 21.33C4.13 21.81 4.91 21.81 5.38 21.33L6.77 19.95C7.24 19.47 7.24 18.7 6.77 18.22Z" fill="#2194FF" fill-opacity="1.000000" fill-rule="nonzero"/>
		<path d="M20.6 12.5C20.6 11.82 21.14 11.27 21.82 11.27L23.77 11.27C24.45 11.27 25 11.82 25 12.5C25 13.17 24.45 13.72 23.77 13.72L21.82 13.72C21.14 13.72 20.6 13.17 20.6 12.5Z" fill="#2194FF" fill-opacity="1.000000" fill-rule="nonzero"/>
		<path d="M4.39 12.5C4.39 11.82 3.85 11.27 3.17 11.27L1.22 11.27C0.54 11.27 0 11.82 0 12.5C0 13.17 0.54 13.72 1.22 13.72L3.17 13.72C3.85 13.72 4.39 13.17 4.39 12.5Z" fill="#2194FF" fill-opacity="1.000000" fill-rule="nonzero"/>
		<path d="M18.22 18.22C18.7 17.75 19.47 17.75 19.95 18.22L21.33 19.61C21.81 20.08 21.81 20.86 21.33 21.33C20.86 21.81 20.08 21.81 19.61 21.33L18.22 19.95C17.75 19.47 17.75 18.7 18.22 18.22Z" fill="#2194FF" fill-opacity="1.000000" fill-rule="nonzero"/>
		<path d="M6.77 6.77C7.24 6.29 7.24 5.52 6.77 5.04L5.38 3.66C4.91 3.18 4.13 3.18 3.66 3.66C3.18 4.13 3.18 4.91 3.66 5.38L5.04 6.77C5.52 7.24 6.29 7.24 6.77 6.77Z" fill="#2194FF" fill-opacity="1.000000" fill-rule="nonzero"/>
	</g>
</svg>
