<svg width="20.000000" height="20.000000" viewBox="0 0 20 20" fill="none" xmlns="http://www.w3.org/2000/svg" xmlns:xlink="http://www.w3.org/1999/xlink">
	<desc>
			Created with Pixso.
	</desc>
	<defs/>
	<path id="Vector" d="M10 20C4.47699 20 0 15.5229 0 10C0 4.47705 4.47699 0 10 0C15.523 0 20 4.47705 20 10C20 15.5229 15.523 20 10 20ZM10.286 6.75C8.28302 6.75 6.75 8.25293 6.75 10C6.75 11.7471 8.28302 13.25 10.286 13.25C10.797 13.25 11.281 13.1499 11.716 12.9729C11.8072 12.9358 11.9048 12.9167 12.0034 12.9175C12.1019 12.918 12.1993 12.9377 12.2901 12.9758C12.3809 13.0142 12.4633 13.0698 12.5327 13.1399C12.6019 13.2097 12.6568 13.2927 12.694 13.384C12.7312 13.4751 12.7501 13.5728 12.7496 13.6714C12.7491 13.7698 12.7292 13.8672 12.691 13.958C12.6529 14.0488 12.5972 14.1313 12.5272 14.2007C12.4572 14.27 12.3742 14.3247 12.283 14.3621C11.6487 14.6194 10.9705 14.751 10.286 14.75C7.55402 14.75 5.25 12.6709 5.25 10C5.25 7.3291 7.55402 5.25 10.286 5.25C10.9705 5.24902 11.6487 5.38062 12.283 5.63794C12.4673 5.71313 12.6143 5.85815 12.6915 6.04175C12.7688 6.2251 12.7701 6.43164 12.695 6.61597C12.6199 6.80029 12.4747 6.94727 12.2913 7.02466C12.1079 7.10181 11.9013 7.10303 11.717 7.02808C11.2625 6.84351 10.7765 6.74902 10.286 6.75Z" fill="#F8FCFF" fill-opacity="1.000000" fill-rule="evenodd"/>
</svg>
